<svg xmlns="http://www.w3.org/2000/svg" xmlns:xlink="http://www.w3.org/1999/xlink" viewBox="0,0,256,256" width="128px" height="128px"><g fill="#ffffff" fill-rule="nonzero" stroke="none" stroke-width="1" stroke-linecap="butt" stroke-linejoin="miter" stroke-miterlimit="10" stroke-dasharray="" stroke-dashoffset="0" font-family="none" font-weight="none" font-size="none" text-anchor="none" style="mix-blend-mode: normal"><g transform="scale(16,16)"><path d="M4.77344,1c-2.07812,0 -3.77344,1.69531 -3.77344,3.77344v5.45703c0,2.07422 1.69531,3.76953 3.77344,3.76953h5.45703c2.07422,0 3.76953,-1.69531 3.76953,-3.77344v-5.45313c0,-2.07812 -1.69531,-3.77344 -3.77344,-3.77344zM4.77344,2h5.45313c1.53906,0 2.77344,1.23438 2.77344,2.77344v5.45313c0,1.53906 -1.23437,2.77344 -2.76953,2.77344h-5.45703c-1.53906,0 -2.77344,-1.23437 -2.77344,-2.76953v-5.45703c0,-1.53906 1.23438,-2.77344 2.77344,-2.77344zM11.5,3c-0.27734,0 -0.5,0.22266 -0.5,0.5c0,0.27734 0.22266,0.5 0.5,0.5c0.27734,0 0.5,-0.22266 0.5,-0.5c0,-0.27734 -0.22266,-0.5 -0.5,-0.5zM7.5,4c-1.92578,0 -3.5,1.57422 -3.5,3.5c0,1.92578 1.57422,3.5 3.5,3.5c1.92578,0 3.5,-1.57422 3.5,-3.5c0,-1.92578 -1.57422,-3.5 -3.5,-3.5zM7.5,5c1.38672,0 2.5,1.11328 2.5,2.5c0,1.38672 -1.11328,2.5 -2.5,2.5c-1.38672,0 -2.5,-1.11328 -2.5,-2.5c0,-1.38672 1.11328,-2.5 2.5,-2.5z"></path></g></g></svg>